<?xml version="1.0" encoding="UTF-8" standalone="no"?>
<!-- Created with Inkscape (http://www.inkscape.org/) -->

<svg
   xmlns:dc="http://purl.org/dc/elements/1.1/"
   xmlns:cc="http://creativecommons.org/ns#"
   xmlns:rdf="http://www.w3.org/1999/02/22-rdf-syntax-ns#"
   xmlns:svg="http://www.w3.org/2000/svg"
   xmlns="http://www.w3.org/2000/svg"
   xmlns:xlink="http://www.w3.org/1999/xlink"
   xmlns:sodipodi="http://sodipodi.sourceforge.net/DTD/sodipodi-0.dtd"
   xmlns:inkscape="http://www.inkscape.org/namespaces/inkscape"
   width="541.86664mm"
   height="406.11777mm"
   viewBox="0 0 1919.9999 1439"
   id="svg2"
   version="1.1"
   inkscape:version="0.91 r13725"
   sodipodi:docname="drawing.svg">
  <defs
     id="defs4" />
  <sodipodi:namedview
     id="base"
     pagecolor="#ffffff"
     bordercolor="#666666"
     borderopacity="1.0"
     inkscape:pageopacity="0.0"
     inkscape:pageshadow="2"
     inkscape:zoom="0.7"
     inkscape:cx="516.524"
     inkscape:cy="817.91856"
     inkscape:document-units="px"
     inkscape:current-layer="layer2"
     showgrid="false"
     fit-margin-top="0"
     fit-margin-left="0"
     fit-margin-right="0"
     fit-margin-bottom="0"
     inkscape:window-width="1855"
     inkscape:window-height="1056"
     inkscape:window-x="65"
     inkscape:window-y="24"
     inkscape:window-maximized="1" />
  <metadata
     id="metadata7">
    <rdf:RDF>
      <cc:Work
         rdf:about="">
        <dc:format>image/svg+xml</dc:format>
        <dc:type
           rdf:resource="http://purl.org/dc/dcmitype/StillImage" />
        <dc:title />
      </cc:Work>
    </rdf:RDF>
  </metadata>
  <g
     inkscape:groupmode="layer"
     id="layer2"
     inkscape:label="Layer 2">
    <image
       sodipodi:absref="/home/andrew/Documents/Server/academkvartal/dist/img/choose-floor/floor_bg.png"
       xlink:href="floor_bg.png"
       width="1920"
       height="1439"
       preserveAspectRatio="none"
       style="image-rendering:optimizeSpeed"
       id="image4226"
       x="0"
       y="-3.7005568e-05" />
    <path
       style="fill:none;fill-rule:evenodd;stroke:#ff0000;stroke-width:1px;stroke-linecap:butt;stroke-linejoin:miter;stroke-opacity:1"
       d="M 1421.875,312.03571 1125.9375,319.3125 1109.1475,314.57395 1098.2884,314.57395 1091.2173,311.41722 1091.2173,304.72496 1077.2321,304.72496 1069.0179,301.58928 1069.0179,322.83928 1075.625,325.96428 1091.0714,325.96428 1091.0714,333.01785 1098.125,337.21428 1108.8393,337.21428 1125.1786,343.01785 1420.7143,335.42857 Z"
       id="path4278"
       inkscape:connector-curvature="0" />
    <path
       style="fill:none;fill-rule:evenodd;stroke:#ff0000;stroke-width:1px;stroke-linecap:butt;stroke-linejoin:miter;stroke-opacity:1"
       d="M 1419.9588,343.5527 1124.9943,351.06571 1108.8393,344.98214 1097.8571,344.98214 1090.8929,341.67857 1090.8929,334.17857 1075.1339,334.17857 1068.8393,330.5625 1068.8393,351.09821 1074.9107,355.02678 1090.9375,355.02678 1090.9375,363.6875 1098.0357,368.0625 1108.9286,368.0625 1124.1104,374.17295 1418.5714,366.14285 Z"
       id="path4318"
       inkscape:connector-curvature="0" />
    <path
       style="fill:none;fill-rule:evenodd;stroke:#ff0000;stroke-width:1px;stroke-linecap:butt;stroke-linejoin:miter;stroke-opacity:1"
       d="M 1417.8122,374.04668 1123.8578,382.06476 1108.9732,376.05357 1097.9018,376.05357 1090.7589,371.90178 1090.7589,364.58035 1087.8571,362.92857 1075.8482,362.92857 1068.6783,358.64185 1068.6783,379.91819 1076.1281,384.21134 1089.9546,384.21134 1089.9546,392.9239 1097.7201,398.10093 1108.9581,398.10093 1122.7679,404.98214 1417.1429,396.41071 Z"
       id="path4320"
       inkscape:connector-curvature="0" />
    <path
       style="fill:none;fill-rule:evenodd;stroke:#ff0000;stroke-width:1px;stroke-linecap:butt;stroke-linejoin:miter;stroke-opacity:1"
       d="M 1415.2679,404.17857 1122.8571,413.46428 1108.8839,406.1875 1097.1429,406.1875 1089.0076,401.00512 1089.0076,390.96673 1075.3074,390.96673 1068.2995,386.98926 1068.2995,408.07619 1074.676,411.99053 1089.9546,411.99053 1089.9546,422.28146 1097.0536,427.92857 1108.7056,427.92857 1122.9108,434.9715 1414.2136,426.57461 Z"
       id="path4322"
       inkscape:connector-curvature="0" />
    <path
       style="fill:none;fill-rule:evenodd;stroke:#ff0000;stroke-width:1px;stroke-linecap:butt;stroke-linejoin:miter;stroke-opacity:1"
       d="M 1413.2665,434.65583 1123.125,444.08928 1108.5714,435.96428 1096.6964,435.96428 1088.6607,430.51785 1088.6607,419.80357 1074.0625,419.80357 1067.0536,414.53571 1067.0536,435.16071 1073.7946,440.02678 1088.1237,440.02678 1088.1237,451.13394 1096.4286,458.01785 1108.75,458.01785 1123.1634,465.97056 1411.8776,456.24784 Z"
       id="path4324"
       inkscape:connector-curvature="0" />
    <path
       style="fill:none;fill-rule:evenodd;stroke:#ff0000;stroke-width:1px;stroke-linecap:butt;stroke-linejoin:miter;stroke-opacity:1"
       d="M 1411.0714,464.04464 1122.7214,474.05178 1108.8318,465.33921 1095.8892,465.33921 1087.9018,459.53571 1087.9018,452.21428 1085.7589,448.01785 1073.6161,447.92857 1066.8304,442.88393 1066.8304,462.75 1073.2589,468.24107 1088.0357,468.24107 1088.0357,480.33928 1096.0714,486.99107 1109.0625,486.99107 1122.7846,496.71708 1409.9107,486.14285 Z"
       id="path4326"
       inkscape:connector-curvature="0" />
    <path
       style="fill:none;fill-rule:evenodd;stroke:#ff0000;stroke-width:1px;stroke-linecap:butt;stroke-linejoin:miter;stroke-opacity:1"
       d="M 1408.8839,494 1122.2163,505.05084 1107.9018,494.89285 1095.3571,494.89285 1086.2928,487.4363 1086.2928,476.00895 1074.1078,476.00895 1066.4054,470.76878 1066.4054,490.08795 1073.4134,496.212 1087.9974,496.212 1087.9974,509.05988 1095.0685,515.97311 1107.9479,515.97311 1122.0982,526.05357 1407.2056,515.53117 Z"
       id="path4328"
       inkscape:connector-curvature="0" />
    <path
       style="fill:none;fill-rule:evenodd;stroke:#ff0000;stroke-width:1px;stroke-linecap:butt;stroke-linejoin:miter;stroke-opacity:1"
       d="M 1406.875,522.92857 1121.875,534 1107.8532,524.05433 1094.6429,524.05433 1085.8509,515.84684 1085.8509,502.84113 1073.0977,502.84113 1066.1529,496.212 1066.1529,517.29893 1072.7189,523.04418 1087.6786,523.04418 1087.6786,538.375 1094.5982,545.11607 1107.9911,545.11607 1121.2693,555.55846 1404.7434,544.25738 Z"
       id="path4330"
       inkscape:connector-curvature="0" />
    <path
       style="fill:none;fill-rule:evenodd;stroke:#ff0000;stroke-width:1px;stroke-linecap:butt;stroke-linejoin:miter;stroke-opacity:1"
       d="M 1403.9226,552.08606 1120.7011,563.76595 1107.7585,551.95979 1094.3109,551.95979 1084.8214,542.08035 1084.8214,531.00893 1073.6161,531.00893 1065.7741,524.37 1065.7741,544.19425 1073.3929,550.875 1086.861,550.875 1086.861,565.97566 1094.374,574.12002 1107.8125,574.12002 1119.0625,585.02678 1402.7231,573.29927 Z"
       id="path4332"
       inkscape:connector-curvature="0" />
    <path
       style="fill:none;fill-rule:evenodd;stroke:#ff0000;stroke-width:1px;stroke-linecap:butt;stroke-linejoin:miter;stroke-opacity:1"
       d="M 1401.9643,581.00893 1118.9333,592.68157 1107.8217,581.00168 1093.9321,581.00168 1084.0625,568.55357 1084.0625,558.01785 1072.2768,558.01785 1065.625,551.90178 1065.625,571.14285 1072.1875,577.79464 1086.8304,577.79464 1086.8304,594.04464 1093.6164,602.40429 1107.8848,602.40429 1119.0625,614.04464 1401.0816,601.96235 Z"
       id="path4334"
       inkscape:connector-curvature="0" />
    <path
       style="fill:none;fill-rule:evenodd;stroke:#ff0000;stroke-width:1px;stroke-linecap:butt;stroke-linejoin:miter;stroke-opacity:1"
       d="M 1400.8929,608.64285 1118.8702,621.21838 1107.7232,609 1093.0804,609 1085.1564,600.82592 1085.1564,584.85289 1072.2769,584.85289 1065.1427,578.03436 1065.1427,596.40651 1071.7087,604.29832 1085.3458,604.29832 1085.3458,621.02897 1092.9851,629.99408 1107.7585,629.99408 1118.8071,643.12606 1398.9981,630.18348 Z"
       id="path4336"
       inkscape:connector-curvature="0" />
    <path
       style="fill:none;fill-rule:evenodd;stroke:#ff0000;stroke-width:1px;stroke-linecap:butt;stroke-linejoin:miter;stroke-opacity:1"
       d="M 1398.9286,637.48214 1118.0804,649.98214 1104.9107,636.14286 1092.7679,636.14286 1083.2623,626.96362 1083.2623,612.00074 1070.9511,612.00074 1064.0694,603.85638 1064.0694,622.48107 1071.2036,631.1305 1083.0098,631.1305 1083.0098,638.01216 1084.8407,639.9062 1084.8407,648.74504 1092.6062,658.53089 1107.8125,658.53089 1117.1024,671.41033 1397.2935,657.71014 Z"
       id="path4338"
       inkscape:connector-curvature="0" />
    <path
       style="fill:none;fill-rule:evenodd;stroke:#ff0000;stroke-width:1px;stroke-linecap:butt;stroke-linejoin:miter;stroke-opacity:1"
       d="M 1396.9778,665.47569 1116.6605,678.92334 1104.0336,665.09688 1091.9749,665.09688 1081.9365,653.29072 1081.9365,638.01216 1071.0774,638.01216 1064.1326,629.93094 1064.1326,649.12384 1071.0774,657.14193 1083.9568,657.14193 1083.9568,675.64035 1091.8486,685.04739 1104.0179,685.04739 1116.0714,698.95535 1394.8313,686.12068 Z"
       id="path4340"
       inkscape:connector-curvature="0" />
    <path
       style="fill:none;fill-rule:evenodd;stroke:#ff0000;stroke-width:1px;stroke-linecap:butt;stroke-linejoin:miter;stroke-opacity:1"
       d="M 1394.8214,693.01785 1115.9029,707.01821 1103.9705,693.19175 1091.5961,693.19175 1081.9365,681.63813 1081.9365,663.89732 1070.9511,663.89732 1063.9432,656.06864 1063.9432,675.13527 1070.6354,683.21649 1082.0312,683.21649 1084.0179,685.60714 1084.0179,702.70535 1091.6518,713.01785 1103.9732,713.01785 1116.0292,726.77932 1393.125,713.19643 1395.1786,692.83928 Z"
       id="path4342"
       inkscape:connector-curvature="0" />
    <path
       style="fill:none;fill-rule:evenodd;stroke:#ff0000;stroke-width:1px;stroke-linecap:butt;stroke-linejoin:miter;stroke-opacity:1"
       d="M 1392.9372,719.96079 1115.9375,735.02678 1103.8839,720.07143 1090.9375,720.07143 1080.9895,705.81865 1080.9895,690.09816 1070.0672,690.09816 1063.5644,681.38559 1063.5644,700.51535 1070.0672,709.03852 1080.9895,709.03852 1080.9895,711.67857 1083.3929,711.67857 1083.3929,729.44643 1090.8482,739.40178 1103.8839,739.40178 1115.2084,755.00046 1390.8538,740.35324 Z"
       id="path4344"
       inkscape:connector-curvature="0" />
    <path
       style="fill:none;fill-rule:evenodd;stroke:#ff0000;stroke-width:1px;stroke-linecap:butt;stroke-linejoin:miter;stroke-opacity:1"
       d="M 1391.0432,747.36118 1114.9107,763.01786 1102.8972,747.10864 1090.4597,747.10864 1081.9365,734.4186 1081.9365,715.79391 1070.1935,715.79391 1063.0593,706.95508 1063.0593,726.02171 1069.8147,734.92367 1081.8734,734.92367 1081.8734,755.29464 1090.5804,766.90178 1103.0357,766.90178 1115.019,782.21144 1389.7805,767.6905 Z"
       id="path4346"
       inkscape:connector-curvature="0" />
    <path
       style="fill:none;fill-rule:evenodd;stroke:#ff0000;stroke-width:1px;stroke-linecap:butt;stroke-linejoin:miter;stroke-opacity:1"
       d="M 1388.8966,774.38276 1114.7033,789.72445 1102.7709,774.00395 1090.2071,774.00395 1080.0425,760.11435 1080.0425,741.23713 1069.8147,741.23713 1062.8571,734.04464 1062.8571,752.30357 1069.5089,760.5625 1079.9793,760.5625 1082.0536,763.53125 1082.0536,782.02204 1089.3864,793.13371 1102.8571,793.13371 1114.9554,810.07143 1387.7679,794.17857 Z"
       id="path4348"
       inkscape:connector-curvature="0" />
    <path
       style="fill:none;fill-rule:evenodd;stroke:#ff0000;stroke-width:1px;stroke-linecap:butt;stroke-linejoin:miter;stroke-opacity:1"
       d="M 1386.8763,800.89926 1114.6402,817.12484 1102.2027,800.01538 1089.0076,799.69971 1080.9821,786.99107 1080.9821,767.03571 1069.5982,767.03571 1062.1754,757.2733 1062.1754,776.52933 1068.552,785.55757 1080.0425,785.55757 1080.0425,790.98714 1081.1158,790.98714 1081.1158,807.83928 1088.8393,819.98214 1102.0089,819.98214 1114.1983,836.57027 1385.8662,820.91291 Z"
       id="path4350"
       inkscape:connector-curvature="0" />
    <path
       style="fill:none;fill-rule:evenodd;stroke:#ff0000;stroke-width:1px;stroke-linecap:butt;stroke-linejoin:miter;stroke-opacity:1"
       d="M 1384.9823,827.79457 1113.75,843.95536 1100.3571,826.58928 1088.5714,826.58928 1079.5374,813.3999 1079.5374,791.93416 1068.3626,791.93416 1061.7857,781.76786 1061.7857,800.33928 1067.8571,810.33928 1079.0323,810.33928 1079.0323,816.27678 1080.8929,816.27678 1080.8929,833.82143 1088.4821,845.91964 1100.3125,845.91964 1113.4821,863.01786 1383.9721,847.80822 Z"
       id="path4352"
       inkscape:connector-curvature="0" />
    <path
       style="fill:none;fill-rule:evenodd;stroke:#ff0000;stroke-width:1px;stroke-linecap:butt;stroke-linejoin:miter;stroke-opacity:1"
       d="M 1383.7827,853.86914 1113.0357,869.66964 1099.9107,852.125 1087.9911,852.125 1078.8839,837.79464 1078.8839,817.34581 1068.1416,817.34581 1061.2054,807.08036 1061.2054,824.75893 1068.2143,835.25 1078.6161,835.25 1078.6161,841.94643 1081.0714,841.94643 1081.0714,859.80378 1087.4292,871.42054 1100.0446,871.42054 1112.9464,888.55357 1382.015,873.06204 Z"
       id="path4354"
       inkscape:connector-curvature="0" />
    <path
       style="fill:none;fill-rule:evenodd;stroke:#ff0000;stroke-width:1px;stroke-linecap:butt;stroke-linejoin:miter;stroke-opacity:1"
       d="M 1382.0781,879.43862 1113.6932,895.6642 1099.9107,878.0625 1086.9196,878.0625 1078.3482,863.41964 1078.3482,842.91529 1077.2014,842.91529 1077.2014,841.96828 1068.1101,841.96828 1061.0268,833.46428 1061.0268,848.77678 1067.8571,860.51786 1077.9911,860.51786 1077.9911,865.91964 1079.0179,865.91964 1081.0211,868.92672 1081.0211,884.08928 1086.7857,893.19643 1098.75,893.19643 1114.5536,913.82143 1380.7523,898.82093 Z"
       id="path4356"
       inkscape:connector-curvature="0" />
    <path
       style="fill:none;fill-rule:evenodd;stroke:#ff0000;stroke-width:1px;stroke-linecap:butt;stroke-linejoin:miter;stroke-opacity:1"
       d="M 1380.1209,905.63945 1115.2679,922.39286 1098.1621,900.14675 1086.9873,900.14675 1078.7798,887.96179 1078.5714,867.57143 1075.8949,866.02613 1067.2321,866.02613 1061.1607,857.57143 1061.1607,873.59821 1067.0942,883.8753 1078.0357,883.8753 1078.0357,907.40722 1086.5453,919.27651 1097.2782,919.27651 1114.072,939.10076 1378.2269,924.45355 Z"
       id="path4358"
       inkscape:connector-curvature="0" />
    <path
       style="fill:none;fill-rule:evenodd;stroke:#ff0000;stroke-width:1px;stroke-linecap:butt;stroke-linejoin:miter;stroke-opacity:1"
       d="M 1377.9464,930.875 1113.3144,947.05571 1096.9625,927.54714 1086.5453,927.54714 1075.9387,913.0262 1075.9387,891.14286 1067.0536,891.14286 1060.0893,879.08928 1060.0893,901.67857 1070.8929,909.98214 1074.9107,909.98214 1074.9107,916.41071 1076.0334,916.41071 1076.0334,935.94403 1085.4089,946.2981 1096.3943,946.2981 1113.0618,967.00622 1376.8379,949.9599 Z"
       id="path4360"
       inkscape:connector-curvature="0" />
    <path
       style="fill:none;fill-rule:evenodd;stroke:#ff0000;stroke-width:1px;stroke-linecap:butt;stroke-linejoin:miter;stroke-opacity:1;fill-opacity:1"
       d="M 1000.051,287.6786 745,292.74996 740.80357,288.99996 730.80357,288.99996 726.78572,280.78568 726.78572,297.12496 731.51786,308.01782 741.96429,308.01782 745.35714,312.21425 999.92475,306.42955 Z"
       id="path4157"
       inkscape:connector-curvature="0" />
    <path
       style="fill:none;fill-rule:evenodd;stroke:#ff0000;stroke-width:1px;stroke-linecap:butt;stroke-linejoin:miter;stroke-opacity:1"
       d="M 1000.051,313.50062 746.12392,319.309 742.02018,315.07899 731.98179,315.07899 726.86789,304.09358 726.86789,321.83438 731.98179,334.08248 742.9672,334.08248 746.16072,338.7321 999.92475,332.31471 Z"
       id="path4161"
       inkscape:connector-curvature="0" />
    <path
       style="fill:none;fill-rule:evenodd;stroke:#ff0000;stroke-width:1px;stroke-linecap:butt;stroke-linejoin:miter;stroke-opacity:1"
       d="M 1000,339.62496 747.09822,345.87496 742.90179,340.9196 732.09822,340.9196 727.0573,329.34739 727.0573,345.95177 732.29746,359.08376 743.1566,359.08376 747.57602,364.829 999.91072,358.55353 Z"
       id="path4163"
       inkscape:connector-curvature="0" />
    <path
       style="fill:none;fill-rule:evenodd;stroke:#ff0000;stroke-width:1px;stroke-linecap:butt;stroke-linejoin:miter;stroke-opacity:1"
       d="M 999.95536,365.56246 748.14423,373.03649 743.78795,366.8493 734.1915,366.8493 730.08775,361.1672 730.08775,372.78395 734.69657,385.91593 745.05064,385.91593 748.14423,390.52475 1000,383.77675 Z"
       id="path4165"
       inkscape:connector-curvature="0" />
    <path
       style="fill:none;fill-rule:evenodd;stroke:#ff0000;stroke-width:1px;stroke-linecap:butt;stroke-linejoin:miter;stroke-opacity:1"
       d="M 999.89319,392.00842 748.52304,399.04792 744.22989,392.86073 735.13852,392.86073 731.79239,387.43116 731.79239,397.65896 735.45419,410.72781 744.92437,410.72781 749.21752,416.85186 999.82143,409.75889 Z"
       id="path4167"
       inkscape:connector-curvature="0" />
    <path
       style="fill:none;fill-rule:evenodd;stroke:#ff0000;stroke-width:1px;stroke-linecap:butt;stroke-linejoin:miter;stroke-opacity:1"
       d="M 999.98789,417.54633 749.91072,425.16068 745.9375,418.15175 736.02679,418.15175 733.05508,410.349 733.05508,422.09202 736.08553,435.85535 745.93452,435.85535 749.912,443.17896 999.92475,435.16087 Z"
       id="path4169"
       inkscape:connector-curvature="0" />
    <path
       style="fill:none;fill-rule:evenodd;stroke:#ff0000;stroke-width:1px;stroke-linecap:butt;stroke-linejoin:miter;stroke-opacity:1"
       d="M 999.91072,442.92853 749.97513,450.12375 746.06079,442.98955 735.95926,442.98955 733.87582,435.41341 733.87582,446.08314 736.96942,460.98289 746.94467,460.98289 751.04842,467.99083 998.97773,459.90961 Z"
       id="path4171"
       inkscape:connector-curvature="0" />
    <path
       style="fill:none;fill-rule:evenodd;stroke:#ff0000;stroke-width:1px;stroke-linecap:butt;stroke-linejoin:miter;stroke-opacity:1"
       d="M 999.79848,467.54889 751.17469,475.2513 746.75527,468.05396 737.03255,468.05396 733.93896,454.10123 733.93896,466.03366 737.72703,485.92104 748.01796,485.92104 751.69643,493.19639 999.23027,484.72148 Z"
       id="path4173"
       inkscape:connector-curvature="0" />
    <path
       style="fill:none;fill-rule:evenodd;stroke:#ff0000;stroke-width:1px;stroke-linecap:butt;stroke-linejoin:miter;stroke-opacity:1"
       d="M 999.64286,492.57139 751.99544,501.13646 747.89169,493.24464 737.79017,493.24464 735.13852,480.3652 735.13852,492.67643 738.92659,509.53335 748.90184,509.53335 752.75305,518.11965 999.04087,509.65962 Z"
       id="path4175"
       inkscape:connector-curvature="0" />
    <path
       style="fill:none;fill-rule:evenodd;stroke:#ff0000;stroke-width:1px;stroke-linecap:butt;stroke-linejoin:miter;stroke-opacity:1"
       d="M 998.83929,516.67853 753.125,526.14282 748.75,516.76782 739.0625,516.76782 736.02679,503.64282 736.02679,516.76782 740.18928,534.97657 749.97513,534.97657 753.95261,543.4366 998.75,534.44639 Z"
       id="path4177"
       inkscape:connector-curvature="0" />
    <path
       style="fill:none;fill-rule:evenodd;stroke:#ff0000;stroke-width:1px;stroke-linecap:butt;stroke-linejoin:miter;stroke-opacity:1"
       d="M 998.9146,541.16375 753.88947,550.7602 749.912,541.92137 740.18928,541.92137 736.96942,527.84237 736.96942,540.1536 740.82062,558.96769 750.85901,558.96769 754.64709,568.18533 998.78833,558.96769 Z"
       id="path4179"
       inkscape:connector-curvature="0" />
    <path
       style="fill:none;fill-rule:evenodd;stroke:#ff0000;stroke-width:1px;stroke-linecap:butt;stroke-linejoin:miter;stroke-opacity:1"
       d="M 998.92857,565.51782 754.52082,575.19327 750.60648,565.78622 740.94689,565.78622 736.90628,546.84586 736.90628,562.25069 741.19943,582.95881 750.79588,582.95881 754.83649,592.42899 998.47266,582.70628 Z"
       id="path4181"
       inkscape:connector-curvature="0" />
    <path
       style="fill:none;fill-rule:evenodd;stroke:#ff0000;stroke-width:1px;stroke-linecap:butt;stroke-linejoin:miter;stroke-opacity:1"
       d="M 998.97773,589.52481 755.08903,600.19454 750.79588,589.77734 741.89391,589.77734 737.97957,574.05685 737.97957,584.60031 742.27272,606.8868 751.9323,606.8868 756.03605,616.92519 998.83929,606.94639 Z"
       id="path4183"
       inkscape:connector-curvature="0" />
    <path
       style="fill:none;fill-rule:evenodd;stroke:#ff0000;stroke-width:1px;stroke-linecap:butt;stroke-linejoin:miter;stroke-opacity:1"
       d="M 998.85146,613.51593 756.91993,624.2488 752.81619,614.08414 739.99987,614.08414 739.99987,631.00419 752.81619,631.00419 757.17247,640.85318 998.75,630.51782 Z"
       id="path4185"
       inkscape:connector-curvature="0" />
    <path
       style="fill:none;fill-rule:evenodd;stroke:#ff0000;stroke-width:1px;stroke-linecap:butt;stroke-linejoin:miter;stroke-opacity:1"
       d="M 998.97322,637.39282 757.94643,648.46425 753.48214,637.39282 740.26786,637.39282 740.26786,654.08925 753.48214,654.08925 758.21429,665.16068 998.85146,654.42711 Z"
       id="path4187"
       inkscape:connector-curvature="0" />
    <path
       style="fill:none;fill-rule:evenodd;stroke:#ff0000;stroke-width:1px;stroke-linecap:butt;stroke-linejoin:miter;stroke-opacity:1"
       d="M 998.75676,660.96153 758.125,672.21425 753.57143,660.96425 741.25,660.96425 741.25,676.32139 753.75,676.32139 758.48214,688.55353 998.09385,677.85002 Z"
       id="path4189"
       inkscape:connector-curvature="0" />
    <path
       style="fill:none;fill-rule:evenodd;stroke:#ff0000;stroke-width:1px;stroke-linecap:butt;stroke-linejoin:miter;stroke-opacity:1"
       d="M 998.57143,684.62496 758.66072,695.6071 754.01786,683.99996 742.05357,683.99996 742.05357,699.3571 755.53572,699.3571 759.73214,712.4821 997.90445,701.08353 Z"
       id="path4191"
       inkscape:connector-curvature="0" />
    <path
       style="fill:none;fill-rule:evenodd;stroke:#ff0000;stroke-width:1px;stroke-linecap:butt;stroke-linejoin:miter;stroke-opacity:1"
       d="M 998.09385,730.56736 760.53572,742.66068 756.07143,730.24996 746.875,730.24996 744.19643,726.32139 744.19643,740.24996 747.94643,745.78568 756.69643,745.78568 761.07143,758.64282 997.77818,746.79293 Z"
       id="path4195"
       inkscape:connector-curvature="0" />
    <path
       style="fill:none;fill-rule:evenodd;stroke:#ff0000;stroke-width:1px;stroke-linecap:butt;stroke-linejoin:miter;stroke-opacity:1"
       d="M 998.40952,707.08131 759.50845,719.20314 755.34157,706.95504 746.31333,706.95504 742.20958,701.5886 742.20958,718.12985 746.75527,723.37002 755.97291,723.37002 760.26606,735.49185 997.90445,724.00136 Z"
       id="path4206"
       inkscape:connector-curvature="0" />
    <path
       style="fill:none;fill-rule:evenodd;stroke:#ff0000;stroke-width:1px;stroke-linecap:butt;stroke-linejoin:miter;stroke-opacity:1"
       d="M 998.15698,753.35892 760.96054,765.67016 756.47799,752.09623 747.82856,752.09623 745.11377,747.67681 745.11377,763.14477 748.52304,768.51121 757.86695,768.51121 761.40248,782.022 997.84131,769.7739 Z"
       id="path4208"
       inkscape:connector-curvature="0" />
    <path
       style="fill:none;fill-rule:evenodd;stroke:#ff0000;stroke-width:1px;stroke-linecap:butt;stroke-linejoin:miter;stroke-opacity:1"
       d="M 997.94643,776.09818 761.78129,789.1562 757.67754,775.39287 748.83871,775.39287 745.99766,769.7739 745.99766,784.54738 749.21752,790.92397 759.25591,790.92397 762.66517,805.00297 997.5,792.57139 Z"
       id="path4210"
       inkscape:connector-curvature="0" />
    <path
       style="fill:none;fill-rule:evenodd;stroke:#ff0000;stroke-width:1px;stroke-linecap:butt;stroke-linejoin:miter;stroke-opacity:1"
       d="M 997.71504,798.56325 762.67857,811.8571 758.57143,797.57139 750.625,797.57139 746.42857,790.96425 746.42857,808.64282 750,812.92853 759.91072,812.92853 762.14286,827.66068 997.76786,814.53568 Z"
       id="path4212"
       inkscape:connector-curvature="0" />
    <path
       style="fill:none;fill-rule:evenodd;stroke:#ff0000;stroke-width:1px;stroke-linecap:butt;stroke-linejoin:miter;stroke-opacity:1"
       d="M 997.71504,820.72347 761.52875,831.89828 759.38218,818.45063 750.1014,818.45063 746.50273,813.84181 746.50273,831.0144 750.16453,835.30755 760.07666,835.30755 762.3495,847.99759 997.39937,836.82278 Z"
       id="path4214"
       inkscape:connector-curvature="0" />
    <path
       style="fill:none;fill-rule:evenodd;stroke:#ff0000;stroke-width:0.99681503px;stroke-linecap:butt;stroke-linejoin:miter;stroke-opacity:1"
       d="M 691.07235,268.73661 465.83402,272.90415 465.83402,269.87321 460.62801,269.87321 460.62801,285.8488 468.59383,285.8488 468.59383,289.19546 690.23177,284.71517 Z"
       id="path4216"
       inkscape:connector-curvature="0" />
    <path
       style="fill:none;fill-rule:evenodd;stroke:#ff0000;stroke-width:1px;stroke-linecap:butt;stroke-linejoin:miter;stroke-opacity:1"
       d="M 691.78572,291.8571 466.94301,296.20176 466.94301,292.53996 462.01852,292.53996 462.01852,308.8918 470.09974,308.8918 470.09974,311.85912 691.82823,308.07105 Z"
       id="path4218"
       inkscape:connector-curvature="0" />
    <path
       style="fill:none;fill-rule:evenodd;stroke:#ff0000;stroke-width:1px;stroke-linecap:butt;stroke-linejoin:miter;stroke-opacity:1"
       d="M 692.77524,314.95272 469.08959,319.05646 469.08959,315.52093 464.10196,315.52093 464.10196,331.99904 471.99378,331.99904 471.99378,335.53458 692.99107,330.07139 Z"
       id="path4220"
       inkscape:connector-curvature="0" />
    <path
       style="fill:none;fill-rule:evenodd;stroke:#ff0000;stroke-width:1.00672269px;stroke-linecap:butt;stroke-linejoin:miter;stroke-opacity:1"
       d="M 694.61074,336.99443 468.49342,342.17133 468.49342,338.0209 463.46959,338.0209 463.46959,354.08715 471.66159,354.08715 471.66159,358.14835 694.54284,352.97144 Z"
       id="path4222"
       inkscape:connector-curvature="0" />
    <path
       style="fill:none;fill-rule:evenodd;stroke:#ff0000;stroke-width:1.00535381px;stroke-linecap:butt;stroke-linejoin:miter;stroke-opacity:1"
       d="M 695.12977,359.98482 470.94999,365.07279 470.94999,360.16335 465.94014,360.16335 465.94014,376.05209 473.79343,376.05209 473.79343,380.96154 695.26518,374.98093 Z"
       id="path4224"
       inkscape:connector-curvature="0" />
    <path
       style="fill:none;fill-rule:evenodd;stroke:#ff0000;stroke-width:1.0059948px;stroke-linecap:butt;stroke-linejoin:miter;stroke-opacity:1"
       d="M 696.25097,381.99407 472.77282,388.01912 472.77282,382.08333 468.52471,382.08333 468.52471,397.97161 475.84593,397.97161 475.84593,403.05942 696.33936,397.72059 Z"
       id="path4228"
       inkscape:connector-curvature="0" />
    <path
       style="fill:none;fill-rule:evenodd;stroke:#ff0000;stroke-width:1.00887465px;stroke-linecap:butt;stroke-linejoin:miter;stroke-opacity:1"
       d="M 697.00205,403.87054 473.94301,410.07337 473.94301,403.9598 468.39721,403.9598 468.39721,419.93541 477.26139,419.93541 477.26139,425.95974 697.13843,418.99829 Z"
       id="path4241"
       inkscape:connector-curvature="0" />
    <path
       style="fill:none;fill-rule:evenodd;stroke:#ff0000;stroke-width:1.00465286px;stroke-linecap:butt;stroke-linejoin:miter;stroke-opacity:1"
       d="M 697.85357,425.9666 476.84436,432.19458 476.84436,426.63992 471.74541,426.63992 471.74541,441.91524 479.26636,441.91524 479.26636,448.1011 697.98876,441.18658 697.98876,426.01123 Z"
       id="path4243"
       inkscape:connector-curvature="0" />
    <path
       style="fill:none;fill-rule:evenodd;stroke:#ff0000;stroke-width:1.00550175px;stroke-linecap:butt;stroke-linejoin:miter;stroke-opacity:1"
       d="M 699.30695,447.9484 477.98584,454.04585 477.98584,447.97596 473.56145,447.97596 473.56145,463.90944 481.05581,463.90944 481.05581,470.0686 699.27503,463.63337 Z"
       id="path4245"
       inkscape:connector-curvature="0" />
    <path
       style="fill:none;fill-rule:evenodd;stroke:#ff0000;stroke-width:1.00468516px;stroke-linecap:butt;stroke-linejoin:miter;stroke-opacity:1"
       d="M 700.04415,469.00235 479.86987,475.96519 479.86987,469.85039 474.82187,469.85039 474.82187,484.93654 483.06995,484.93654 483.06995,492.03329 699.84203,484.72061 Z"
       id="path4247"
       inkscape:connector-curvature="0" />
    <path
       style="fill:none;fill-rule:evenodd;stroke:#ff0000;stroke-width:1.00443292px;stroke-linecap:butt;stroke-linejoin:miter;stroke-opacity:1"
       d="M 700.78462,490.78795 482.11862,497.88473 482.11862,491.05575 476.98307,491.05575 476.98307,507.03468 484.19085,507.03468 484.19085,513.32805 700.24403,506.00809 Z"
       id="path4249"
       inkscape:connector-curvature="0" />
    <path
       style="fill:none;fill-rule:evenodd;stroke:#f50606;stroke-width:1.00510728px;stroke-linecap:butt;stroke-linejoin:miter;stroke-opacity:1"
       d="M 702.00626,512.70794 482.90223,519.98295 482.90223,512.93109 478.79713,512.93109 478.79713,528.10598 485.87956,528.10598 485.87956,534.2652 701.46492,527.97209 Z"
       id="path4251"
       inkscape:connector-curvature="0" />
    <path
       style="fill:none;fill-rule:evenodd;stroke:#ff0000;stroke-width:1.00472164px;stroke-linecap:butt;stroke-linejoin:miter;stroke-opacity:1"
       d="M 703.0304,533.55844 484.68969,541.0097 484.68969,534.0469 480.04695,534.0469 480.04695,549.04369 488.07032,549.04369 488.07032,556.00649 702.93479,548.58125 Z"
       id="path4253"
       inkscape:connector-curvature="0" />
    <path
       style="fill:none;fill-rule:evenodd;stroke:#ff0000;stroke-width:1.00276256px;stroke-linecap:butt;stroke-linejoin:miter;stroke-opacity:1"
       d="M 704.01649,554.93887 487.26054,563.01819 487.26054,555.96553 482.45671,555.96553 482.45671,570.02623 489.46042,570.02623 489.46042,576.94498 703.92669,569.66912 Z"
       id="path4255"
       inkscape:connector-curvature="0" />
    <path
       style="fill:none;fill-rule:evenodd;stroke:#ff0000;stroke-width:1px;stroke-linecap:butt;stroke-linejoin:miter;stroke-opacity:1"
       d="M 704.83394,575.88775 488.97697,583.71643 488.97697,577.97119 484.74695,577.97119 484.74695,590.09302 491.69175,590.09302 491.69175,597.60603 705.08648,590.59809 Z"
       id="path4268"
       inkscape:connector-curvature="0" />
    <path
       style="fill:none;fill-rule:evenodd;stroke:#ff0000;stroke-width:1px;stroke-linecap:butt;stroke-linejoin:miter;stroke-opacity:1"
       d="M 705.46528,596.87998 490,604.9821 490,596.99103 485.04464,596.99103 485.04464,610.87496 493.03572,610.87496 493.03572,619.08925 705.40179,611.14282 Z"
       id="path4270"
       inkscape:connector-curvature="0" />
    <path
       style="fill:none;fill-rule:evenodd;stroke:#ff0000;stroke-width:1px;stroke-linecap:butt;stroke-linejoin:miter;stroke-opacity:1"
       d="M 706.4123,616.92519 491.83036,625.51782 491.83036,617.08032 487.99107,617.08032 487.99107,631.14282 495.26786,631.14282 495.26786,640.24996 706.09663,631.57241 Z"
       id="path4272"
       inkscape:connector-curvature="0" />
    <path
       style="fill:none;fill-rule:evenodd;stroke:#ff0000;stroke-width:1px;stroke-linecap:butt;stroke-linejoin:miter;stroke-opacity:1"
       d="M 707.00893,637.88389 493.90146,646.15648 493.90146,637.00198 488.78756,637.00198 488.78756,651.96486 496.99505,651.96486 496.99505,660.8037 707.04365,651.83859 Z"
       id="path4274"
       inkscape:connector-curvature="0" />
    <path
       style="fill:none;fill-rule:evenodd;stroke:#ff0000;stroke-width:1px;stroke-linecap:butt;stroke-linejoin:miter;stroke-opacity:1"
       d="M 707.8644,657.96264 495.66964,667.34818 495.66964,657.08032 490.84822,657.08032 490.84822,672.1696 497.99107,672.1696 497.99107,681.2321 707.72322,672.43746 Z"
       id="path4279"
       inkscape:connector-curvature="0" />
    <path
       style="fill:none;fill-rule:evenodd;stroke:#ff0000;stroke-width:1px;stroke-linecap:butt;stroke-linejoin:miter;stroke-opacity:1"
       d="M 708.55888,678.5445 496.99505,687.5096 496.99505,677.59748 492.82817,677.59748 492.82817,692.05529 498.95222,692.05529 498.95222,701.71487 708.48214,692.74996 Z"
       id="path4281"
       inkscape:connector-curvature="0" />
    <path
       style="fill:none;fill-rule:evenodd;stroke:#ff0000;stroke-width:1px;stroke-linecap:butt;stroke-linejoin:miter;stroke-opacity:1"
       d="M 709.34806,698.49501 499.01786,708.01782 499.01786,702.83925 497.63393,702.83925 497.63393,697.12496 494.01786,697.12496 494.01786,712.25889 500.89286,712.25889 500.89286,722.1696 708.97322,712.88389 Z"
       id="path4283"
       inkscape:connector-curvature="0" />
    <path
       style="fill:none;fill-rule:evenodd;stroke:#ff0000;stroke-width:1px;stroke-linecap:butt;stroke-linejoin:miter;stroke-opacity:1"
       d="M 709.94784,718.50866 499.82143,728.06246 499.82143,717.12496 495.89286,717.12496 495.89286,731.94639 502.00893,731.94639 502.00893,742.12496 709.33036,732.83925 Z"
       id="path4285"
       inkscape:connector-curvature="0" />
    <path
       style="fill:none;fill-rule:evenodd;stroke:#ff0000;stroke-width:1px;stroke-linecap:butt;stroke-linejoin:miter;stroke-opacity:1"
       d="M 710.89286,738.50889 500.84822,748.15175 500.84822,737.03568 497.05357,737.03568 497.05357,751.18746 504.25552,751.18746 504.25552,762.30353 710.9375,751.67853 Z"
       id="path4287"
       inkscape:connector-curvature="0" />
    <path
       style="fill:none;fill-rule:evenodd;stroke:#000000;stroke-width:1px;stroke-linecap:butt;stroke-linejoin:miter;stroke-opacity:1"
       d="M 1054.8518,902.60896 1062.5,285.07139"
       id="path4207"
       inkscape:connector-curvature="0" />
    <path
       style="fill:none;fill-rule:evenodd;stroke:#000000;stroke-width:1px;stroke-linecap:butt;stroke-linejoin:miter;stroke-opacity:1"
       d="M 740.69436,837.45412 721.24892,256.11133"
       id="path4209"
       inkscape:connector-curvature="0" />
    <path
       style="fill:none;fill-rule:evenodd;stroke:#000000;stroke-width:1px;stroke-linecap:butt;stroke-linejoin:miter;stroke-opacity:1"
       d="M 492.44937,765.22821 452.04327,240.45396"
       id="path4211"
       inkscape:connector-curvature="0" />
  </g>
</svg>
