<svg
   xmlns:rdf="http://www.w3.org/1999/02/22-rdf-syntax-ns#"
   xmlns:svg="http://www.w3.org/2000/svg"
   width="100%"
   height="100%"
   viewBox="0 0 2688 3395.0001">
  <g>
    <image
       xlink:href="foor_3-7.png"
       width="2688"
       height="3395"
       preserveAspectRatio="none"
       style="image-rendering:optimizeSpeed"
       x="0"
       y="9.1312439e-05" />
    <path
       class="svg-appartment"
       d="M 1075.7143,926.42857 49.497475,926.42857 49.497475,205.71428 574.28571,205.71428 574.28571,19.999996 947.14286,19.999996 947.14286,202.85714 1076.3175,202.85714 1076.3175,926.42857 Z"
        />
    <path
       class="svg-appartment"
       d="M 51.51778,1717.6417 51.51778,1295.3571 32.857143,1295.3571 32.857143,970.12881 219.45564,970.12881 219.45564,957.75444 912.42029,957.75444 912.42029,1720.3571 51.51778,1720.3571 Z"
        />
    <path
       class="svg-appartment"
       d="M 51.25,1748.5714 879.84287,1748.5714 879.84287,2111.0961 910.14744,2111.0961 910.14744,2369.1901 647.50778,2369.1901 647.50778,2465.6597 220.21326,2465.6597 220.21326,2453.0328 32.829958,2453.0328 32.829958,2127.1429 50,2127.1429 50,1748.5714 Z"
        />
    <path
       class="svg-appartment"
       d="M 50.760165,2495.838 690,2495.838 690,2398.2143 1300,2398.2143 1300,2548.9286 1330.3571,2548.9286 1330.3571,2749.5125 1576.7857,2749.5125 1576.7857,3143.9771 1564.2212,3143.9771 1564.2212,3359.6447 1124.2998,3359.6447 1124.2998,3343.4822 31.819805,3343.4822 31.819805,2923.2143 50,2923.2143 50,2495.838 Z"
        />
    <path
       class="svg-appartment"
       d="M 1605.8929,2399.7321 2037.8571,2399.7321 2037.8571,2494.2857 2637.5083,2494.2857 2637.5083,2832.8501 2624.3763,2832.8501 2624.3763,2923.2588 2653.6707,2923.2588 2653.6707,3343.5714 1606.6476,3343.5714 1606.6476,2399.7321 Z"
        />
    <path
       class="svg-appartment"
       d="M 1775.2168,2370.8316 1775.2168,1775 1812.5,1775 1812.5,1747.6786 2636.4981,1747.6786 2636.4981,2084.3271 2652.1555,2084.3271 2652.1555,2467.1749 2134.4523,2467.1749 2134.4523,2373.2307 Z"
        />
    <path
       class="svg-appartment"
       d="M 2637.0032,1719.4095 1806.6578,1719.4095 1806.6578,1357.5 1775.7143,1357.5 1775.7143,957.5 2659.2266,957.5 2659.2266,1716.1265 2637.0032,1716.1265 Z"
        />
    <path
       class="svg-appartment"
       d="M 2638.0134,928.71256 1610.1832,928.71256 1610.1832,200.39257 1739.9878,200.39257 1739.9878,23.615878 2115.2594,23.615878 2115.2594,199.8875 2634.4778,199.8875 2634.4778,928.71256 Z"
        />
  </g>
</svg>
