<svg
   xmlns:svg="http://www.w3.org/2000/svg"
   xmlns="http://www.w3.org/2000/svg"
   xmlns:xlink="http://www.w3.org/1999/xlink"
   viewBox="0 0 2678.0001 3381.0001"
   height="100%"
   width="100%">
  <g
     id="layer4">
    <image
       xlink:href="floor_22-24.png"
       y="9.2273622e-05"
       x="0"
       style="image-rendering:optimizeSpeed"
       preserveAspectRatio="none"
       height="3381"
       width="2678" />
    <path
       d="M 49.750013,200.02963 572.5,200.02963 572.5,20.475016 943.48248,20.475016 943.48248,200.64285 1073.6607,200.64285 1073.6607,925.82423 50.535714,925.82423 50.535714,200.02963 Z"
       class="svg-appartment" />
    <path
       d="M 50.535714,1714.0357 50.535714,1290.6429 34.464286,1290.6429 34.464286,966.71428 217.68787,966.71428 217.68787,953.66656 910.39998,953.66656 910.39998,1084.6707 894.11127,1084.6707 894.11127,1211.8036 908.30357,1211.8036 908.30357,1713.4907 50.535714,1713.4907 Z"
       class="svg-appartment" />
    <path
       d="M 876.60715,2102.9643 908.66072,2102.9643 908.66072,2361.3571 651.04332,2361.3571 651.04332,2458.0536 33.587572,2458.0536 33.587572,2077.6507 50.507627,2077.6507 50.507627,1741.8036 876.96429,1741.8036 876.96429,2102.9643 Z"
       class="svg-appartment" />
    <path
       d="M 678.63311,2389.5353 1295.4575,2389.5353 1295.4575,2539.6607 1324.7321,2539.6607 1324.7321,2738.6692 1571.4501,2738.6692 1571.4501,3132.6071 1558.3929,3132.6071 1558.3929,3347.7857 1078.0357,3347.7857 1078.0357,3333.3214 33.587572,3333.3214 33.587572,2898.5 48.125,2898.5 48.125,2485.4643 678.39286,2485.4643 678.39286,2389.5353 Z"
       class="svg-appartment" />
    <path
       d="M 1352.5446,2539.5268 1382.5446,2539.5268 1382.5446,2389.5937 2039.2857,2389.5937 2039.2857,2485.1071 2627.3436,2485.1071 2627.3436,2913.615 2643.6324,2913.615 2643.6324,3331.7551 1599.9554,3331.7551 1599.9554,2711.2679 1352.5311,2711.2679 1352.5311,2539.5268 Z"
       class="svg-appartment" />
    <path
       d="M 2039.1071,2361.8929 1767.5893,2361.8929 1767.5893,1740.5123 2626.875,1740.5123 2626.875,2118.4107 2643.3929,2118.4107 2643.3929,2457.9731 2039.4643,2457.9731 2039.4643,2361.8929 Z"
       class="svg-appartment" />
    <path
       d="M 2626.3966,1713.5538 1800.8036,1713.5538 1800.8036,1352.6137 1767.3882,1352.6137 1767.3882,952.97208 2459.974,952.97208 2459.974,966.98795 2646.9643,966.98795 2646.9643,1301 2626.9643,1301 2626.9643,1713.5538 Z"
       class="svg-appartment" />
    <path
       d="M 2627.4107,925.73214 1604.5642,925.73214 1604.5642,200.55356 1734.6845,200.55356 1734.6845,23.14285 2105.9155,23.14285 2105.9155,200.5347 2627.1429,200.5347 2627.1429,925.73214 Z"
       class="svg-appartment" />
  </g>
</svg>
