<svg
   xmlns:svg="http://www.w3.org/2000/svg"
   xmlns:xlink="http://www.w3.org/1999/xlink"
   viewBox="0 0 2688 3395.0001"
   height="100%"
   width="100%">
  <g>
    <image
       xlink:href="foor_3-7.png"
       y="9.1312439e-05"
       x="0"
       id="image4245"
       style="image-rendering:optimizeSpeed"
       preserveAspectRatio="none"
       height="3395"
       width="2688" />
    <path
       d="M 1076.6071,201.60714 1076.6071,926.96428 50.535714,926.96428 50.535714,204.82142 574.28572,204.82142 574.28572,20.711686 946.96429,20.711686 946.96429,201.65526 1076.6071,201.65526 Z"
       class="svg-appartment" />
    <path
       d="M 912.32143,958.21428 912.32143,1088.0641 897.01546,1088.0641 897.01546,1217.1429 911.96429,1217.1429 911.96429,1719.1569 51.607143,1719.1569 51.607143,1295.7136 34.660859,1295.7136 34.660859,970.50762 218.83929,970.50762 218.83929,957.94642 912.32143,957.94642 Z"
       class="svg-appartment" />
    <path
       d="M 879.906,1748.9249 879.906,2111.033 911.91965,2111.033 911.91965,2368.2431 653.69497,2368.2431 653.69497,2466.6071 190.53571,2466.6071 190.53571,2453.75 34.642857,2453.75 34.642857,2085.0847 50.8233,2085.0847 50.8233,1748.75 879.906,1748.75 Z"
       class="svg-appartment" />
    <path
       d="M 1299.0562,2399.9997 1299.0562,2549.9107 1330,2549.9107 1330,2750.0176 1577.0982,2750.0176 1577.0982,3142.0831 1561.0645,3142.0831 1561.0645,3360.0893 1082.3785,3360.0893 1082.3785,3342.9771 34.0625,3342.9771 34.0625,2909.8742 49.244937,2909.8742 49.244937,2496.0905 682.10551,2496.0905 682.10551,2397.9794 1299.0562,2397.9794 Z"
       class="svg-appartment" />
    <path
       d="M 1388.7946,2549.9107 1388.7946,2399.3053 2046.7857,2399.3053 2046.7857,2495.7143 2637.1295,2495.7143 2637.1295,2832.8571 2622.8571,2832.8571 2622.8571,2926.2892 2653.1657,2926.2892 2653.1657,3343.0357 1607.1429,3343.0357 1607.1429,2713.0208 1576.9744,2713.0208 1576.9744,2721.3545 1359.0971,2721.3545 1359.0971,2549.7549 1388.7946,2549.7549 Z"
       class="svg-appartment" />
    <path
       d="M 1773.9857,1747.1255 2637.1429,1747.1255 2637.1429,2128.1424 2653.1657,2128.1424 2653.1657,2453.0357 2468.0552,2453.0357 2468.0552,2465.9753 2076.3686,2465.9753 2076.3686,2371.2104 1775.3431,2371.2104 1775.3431,1747.1255 Z"
       class="svg-appartment" />
    <path
       d="M 2636.5179,1719.0179 1806.9643,1719.0179 1806.9643,1358.9286 1776.0714,1358.9286 1776.0714,958.89086 2468.6866,958.89086 2468.6866,974.29569 2496.4658,974.29569 2496.4658,956.99683 2657.1429,956.99683 2657.1429,1334.7939 2636.7507,1334.7939 2636.7507,1719.0179 Z"
       class="svg-appartment" />
    <path
       d="M 2637.0536,928.03571 1610.6882,928.03571 1610.6882,201.78571 1740,201.78571 1740,23.928566 2115,23.928566 2115,202.14285 2633.3414,202.14285 2633.3414,928.03571 Z"
       class="svg-appartment" />
  </g>
</svg>
