<svg
   xmlns:svg="http://www.w3.org/2000/svg"
   xmlns="http://www.w3.org/2000/svg"
   xmlns:xlink="http://www.w3.org/1999/xlink"
   viewBox="0 0 2686 3391"
   height="100%"
   width="100%">
  
  <g>
    <image
       xlink:href="floor_13-17.png"
       y="2.9796691e-05"
       x="0"
       style="image-rendering:optimizeSpeed"
       preserveAspectRatio="none"
       height="3391"
       width="2686" />
    <path
       d="M 1074.8023,926.73286 51.428572,926.73286 51.428572,203.96872 574.7768,203.96872 574.7768,20.285707 946.42857,20.285707 946.42857,199.92857 1076.4438,199.92857 1076.4438,926.73286 Z"
       class="svg-appartment" />
    <path
       d="M 912.5,1718.3214 51.012704,1718.3214 51.012704,1291.7767 35.102801,1291.7767 35.102801,969.41181 220.59206,969.41181 220.59206,956.65863 913.1779,956.65863 913.1779,1088.6098 898.02561,1088.6098 898.02561,1215.384 910.39998,1215.384 910.39998,1718.3214 Z"
       class="svg-appartment" />
    <path
       d="M 878.92857,1746 878.92857,2108.3588 911.1576,2108.3588 911.1576,2367.7155 653.57143,2367.7155 653.57143,2465.2857 191.42857,2465.2857 191.42857,2453.6786 35,2453.6786 35,2084.3677 51.265242,2084.3677 51.265242,1746.9821 878.92857,1746.9821 Z"
       class="svg-appartment" />
    <path
       d="M 1299.1824,2396.2523 1299.1824,2547.6071 1329.2857,2547.6071 1329.2857,2746 1576.4286,2746 1576.4286,3139.9286 1562.5,3139.9286 1562.5,3356.6548 1082.5,3356.6548 1082.5,3340.1071 33.571429,3340.1071 33.571429,2920.0164 50.357143,2920.0164 50.357143,2492.8481 691.07061,2492.8481 691.07061,2396.3571 1299.1824,2396.3571 Z"
       class="svg-appartment" />
    <path
       d="M 1387.8571,2396.7143 2046.0714,2396.7143 2046.0714,2491.7143 2637.1429,2491.7143 2637.1429,2831.3571 2621.7857,2831.3571 2621.7857,2921.3571 2651.7857,2921.3571 2651.7857,3341 1605.7143,3341 1605.7143,2718.2384 1356.1298,2718.2384 1356.1298,2547.0714 1387.3214,2547.0714 1387.3214,2396.7143 Z"
       class="svg-appartment" />
    <path
       d="M 1773.9286,2368.8571 1773.9286,1745.6429 2635.3571,1745.6429 2635.3571,2125.1071 2651.7857,2125.1071 2651.7857,2464.5714 2074.2857,2464.5714 2074.2857,2369.2143 1773.9286,2369.2143 Z"
       class="svg-appartment" />
    <path
       d="M 2633.9728,1718.3137 1805,1718.3137 1805,1356.5528 1774.3329,1356.5528 1774.3329,957.78571 2467.0451,957.78571 2467.0451,969.41181 2655.3571,969.41181 2655.3571,1332.8142 2634.7304,1332.8142 2634.7304,1718.3137 Z"
       class="svg-appartment" />
    <path
       d="M 1610,927.42857 1610,200.46428 1739.4643,200.46428 1739.4643,23.656485 2112.9866,23.656485 2112.9866,200.43318 2631.9643,200.43318 2631.9643,928.85714 1610,928.85714 Z"
       class="svg-appartment" />
  </g>
</svg>
