<svg
   
   xmlns:svg="http://www.w3.org/2000/svg"
   xmlns="http://www.w3.org/2000/svg"
   xmlns:xlink="http://www.w3.org/1999/xlink"
   version="1.1"
   id="svg2"
   viewBox="0 0 2680.9999 3385.9999"
   height="100%"
   width="100%">
  
  <g>
    <image
       xlink:href="floor_19-21.png"
       y="-4.7097994e-05"
       x="0"
       style="image-rendering:optimizeSpeed"
       preserveAspectRatio="none"
       height="3386"
       width="2681" />
    <path
       d="M 1073.2143,925.01785 50.535714,925.01785 50.535714,203.67856 572.63023,203.67856 572.63023,19.928563 944.64286,19.928563 944.64286,200.61021 1074.4866,200.61021 1074.4866,925.01785 Z"
       class="svg-appartment" />
    <path
       d="M 910.71429,1715.375 50.535714,1715.375 50.535714,1291.5357 33.392857,1291.5357 33.392857,967.5054 179.49148,967.5054 179.49148,970.72526 217.49847,970.72526 217.49847,954.56282 911.1576,954.56282 911.1576,1085.5354 895.2477,1085.5354 895.2477,1213.5407 909.83177,1213.5407 909.83177,1715.375 Z"
       class="svg-appartment" />
    <path
       d="M 910.33685,2362.3998 650.91705,2362.3998 650.91705,2461.0791 218.21429,2461.0791 218.21429,2447.25 33.208765,2447.25 33.208765,2080.2857 50.535714,2080.2857 50.535714,1743.6786 877.94883,1743.6786 877.94883,2105.5054 909.26356,2105.5054 909.26356,2362.3998 Z"
       class="svg-appartment" />
    <path
       d="M 1296.2783,2392.6097 1296.2783,2542.5625 1326.3619,2542.5625 1326.3619,2742.5625 1572.6339,2742.5625 1572.6339,3134.6607 1557.4107,3134.6607 1557.4107,3351.625 1079.7268,3351.625 1079.7268,3334.356 34.218918,3334.356 34.218918,2901.9475 47.982246,2901.9475 47.982246,2488.5 678.39286,2488.5 678.39286,2392.4518 1296.2783,2392.4518 Z"
       class="svg-appartment" />
    <path
       d="M 1353.7307,2542.5858 1384.4772,2542.5858 1384.4772,2392.6295 2042.3214,2392.6295 2042.3214,2487.9643 2630.4372,2487.9643 2630.4372,2915.3952 2646.8522,2915.3952 2646.8522,3335.5536 1603.0357,3335.5536 1603.0357,2714.5714 1354.1095,2714.5714 1354.1095,2542.5858 Z"
       class="svg-appartment" />
    <path
       d="M 2629.6429,1743.5 2629.6429,2120.0263 2646.3471,2120.0263 2646.3471,2449.75 2630.4372,2449.75 2630.4372,2449.778 2462.6786,2449.778 2462.6786,2460.5536 2070.1786,2460.5536 2070.1786,2365.2409 1769.9107,2365.2409 1769.9107,1742.7975 2629.6429,1742.7975 Z"
       class="svg-appartment" />
    <path
       d="M 2629.9322,1715.0814 1803.2143,1715.0814 1803.2143,1354.5268 1769.3453,1354.5268 1769.3453,1184.4988 1769.5347,1184.4988 1769.5347,954.30357 2462.6888,954.30357 2462.6888,970.59899 2650.7666,970.59899 2650.7666,1330.9078 2629.4902,1330.9078 2629.4902,1715.0814 Z"
       class="svg-appartment" />
    <path
       d="M 2629.3008,926.18384 1606.8304,926.18384 1606.8304,200.42081 1735.8929,200.42081 1735.8929,24.035705 2108.4409,24.035705 2108.4409,200.82142 2626.4286,200.82142 2626.4286,926.18384 Z"
       class="svg-appartment" />
  </g>
</svg>
