<svg
   xmlns:svg="http://www.w3.org/2000/svg"
   xmlns="http://www.w3.org/2000/svg"
   xmlns:xlink="http://www.w3.org/1999/xlink"
   viewBox="0 0 3066 3505"
   height="100%"
   width="100%">
  <defs/>
  <g>
    <image
       xlink:href="floor_1.png"
       y="5.2865096e-05"
       x="0"
       style="image-rendering:optimizeSpeed"
       preserveAspectRatio="none"
       height="3505"
       width="3066" />
    <path
       d="M 826.80986,1377.1137 369.71583,1377.1137 369.71583,387.4167 1087.1429,387.4167 1087.1429,1040.6066 887.32143,1040.6066 887.32143,1206.7767 827.0624,1206.7767 827.0624,1377.1137 Z"
       class="svg-appartment" />
    <path
       d="M 370,1405.5357 866.96342,1405.5357 866.96342,1376.8611 856.48309,1376.8611 856.48309,1232.6618 914.19643,1232.6618 914.19643,1066.1129 1086.5453,1066.1129 1086.5453,1299.8214 1139.5152,1299.8214 1139.5152,1548.75 1144.5089,1548.75 1144.5089,1711.6636 1105.5488,1711.6636 1105.5488,1748.6604 407.09148,1748.6604 407.09148,1711.9792 370.34718,1711.9792 370.34718,1405.5357 Z"
       class="svg-appartment" />
    <path
       d="M 370.53658,1774.5456 1080.5357,1774.5456 1080.5357,1809.5536 1114.4643,1809.5536 1114.4643,2100.1786 1144.6429,2100.1786 1144.6429,2221.3487 910.65252,2221.3487 910.65252,2385.7143 876.4336,2385.7143 876.4336,2420.4434 370.53658,2420.4434 Z"
       class="svg-appartment" />
    <path
       d="M 370.44643,2445.4464 890.70201,2445.4464 890.70201,2479.7545 935.68536,2479.7545 935.68536,2393.3271 969.87271,2393.3271 969.87271,2348.7541 935.78007,2348.7541 935.78007,2246.0268 1144.375,2246.0268 1144.375,2358.4375 1296.4992,2358.4375 1296.4992,3206.5625 370.12621,3206.5625 370.12621,2445.4464 Z"
       class="svg-appartment" />
    <path
       d="M 1321.75,3206.5625 1321.75,2358.6694 1739.3501,2358.6694 1739.3501,3206.4684 1321.75,3206.4684 Z"
       class="svg-appartment" />
    <path
       d="M 1765.5572,2358.6031 1917.5852,2358.6031 1917.5852,2287.5234 2162.7812,2287.5234 2162.7812,2348.792 2127.6843,2348.792 2127.6843,2393.6049 2162.4209,2393.6049 2162.4209,2615.5938 2691.5,2615.5938 2691.5,3206.7777 1765.1153,3206.7777 1765.1153,2358.6031 Z"
       class="svg-appartment" />
    <path
       d="M 2691.375,2419.3125 2221.2876,2419.3125 2221.2876,2385.8267 2187.6116,2385.8267 2187.6116,2262.5156 1917.625,2262.5156 1917.625,1809.137 1951.8437,1809.137 1951.8437,1774.8865 2690.9687,1774.8865 2690.9687,2419.3125 Z"
       class="svg-appartment" />
    <path
       d="M 2691.4062,1039.4375 2106.5,1039.4375 2106.5,1005.8195 2061.9234,1005.8195 2061.9234,1040.6445 1770.3125,1040.6445 1770.3125,713.6076 1804.3597,713.6076 1804.3597,668.61793 1770.0209,668.61793 1770.0209,387.50001 2691.5136,387.50001 2691.5136,1039.4375 2691.4062,1039.4375 Z"
       class="svg-appartment" />
  </g>
</svg>
