<svg
   
   xmlns:svg="http://www.w3.org/2000/svg"
   xmlns="http://www.w3.org/2000/svg"
   xmlns:xlink="http://www.w3.org/1999/xlink"
   viewBox="0 0 2681.9999 3385.9999"
   height="100%"
   width="100%">
  <g>
    <image
       xlink:href="floor_8-9.png"
       y="-4.7097994e-05"
       x="0"
       style="image-rendering:optimizeSpeed"
       preserveAspectRatio="none"
       height="3386"
       width="2682" />
    <path
       d="M 50.357143,926 50.357143,203.14285 573.26157,203.14285 573.26157,20.171717 944.99771,20.171717 944.99771,200.48395 1073.2871,200.48395 1073.2871,925.2684 50.357143,925.2684 Z"
       class="svg-appartment" />
    <path
       d="M 31.819805,967.18973 218.19295,967.18973 218.19295,955.0679 895,955.0679 895,1213.8571 909.28572,1213.8571 909.28572,1716 47.857143,1716 47.857143,1290.6429 33.84011,1290.6429 33.84011,967.18973 Z"
       class="svg-appartment" />
    <path
       d="M 877.85714,1743.8571 877.85714,2106.7143 908.57143,2106.7143 908.57143,2364.7358 651.54839,2364.7358 651.54839,2461.7104 189.64286,2461.7104 189.64286,2449.0357 33.571429,2449.0357 33.571429,2121 50.714286,2121 50.714286,1744.3929 877.85714,1744.3929 Z"
       class="svg-appartment" />
    <path
       d="M 1297.0359,2393.5251 1297.0359,2543.0277 1327.0879,2543.0277 1327.0879,2741.7143 1573.5651,2741.7143 1573.5651,3136.9974 1559.2857,3136.9974 1559.2857,3351.7811 1120.5357,3351.7811 1120.5357,3336.7143 33.75,3336.7143 33.75,2902.642 48.73986,2902.642 48.73986,2488.5 690.71429,2488.5 690.71429,2392.0714 1297.0359,2392.0714 Z"
       class="svg-appartment" />
    <path
       d="M 1384.1615,2394.0302 2042.0234,2394.0302 2042.0234,2490.4998 2632.4575,2490.4998 2632.4575,2904.1572 2645.5895,2904.1572 2645.5895,3337.5127 1602.1429,3337.5127 1602.1429,2713.1429 1356.0714,2713.1429 1356.0714,2542.5226 1384.4141,2542.5226 1384.4141,2394.0302 Z"
       class="svg-appartment" />
    <path
       d="M 1770,1743.6786 2631.1948,1743.6786 2631.1948,2120.2857 2646.4286,2120.2857 2646.4286,2461.2053 2071.3178,2461.2053 2071.3178,2365.2409 1769.6429,2365.2409 1769.6429,1743.6786 Z"
       class="svg-appartment" />
    <path
       d="M 1771.0714,955.64285 2463.3929,955.64285 2463.3929,967.60714 2651.1454,967.60714 2651.1454,1290.4385 2631.9525,1290.4385 2631.9525,1716.7143 1802.1429,1716.7143 1802.1429,1354.9286 1771.0714,1354.9286 1771.0714,955.64285 Z"
       class="svg-appartment" />
    <path
       d="M 1606.1425,200.23141 1736.0714,200.23141 1736.0714,22.697097 2109.1985,22.697097 2109.1985,200.99999 2627.4068,200.99999 2627.4068,927.07142 1606.9002,927.07142 1606.9002,200.23141 Z"
       class="svg-appartment" />
  </g>
</svg>
