<svg
   xmlns:svg="http://www.w3.org/2000/svg"
   xmlns="http://www.w3.org/2000/svg"
   xmlns:xlink="http://www.w3.org/1999/xlink"
   version="1.1"
   id="svg2"
   viewBox="0 0 2681.9999 3385.9999"
   height="100%"
   width="100%">
  
  <g>
    <image
       xlink:href="foor_18.png"
       y="-4.7097994e-05"
       x="0"
       style="image-rendering:optimizeSpeed"
       preserveAspectRatio="none"
       height="3386"
       width="2682" />
    <path
       d="M 1072.9083,925.2684 50.633896,925.2684 50.633896,203.64067 572.67857,203.64067 572.67857,20.19642 945.35715,20.19642 945.35715,201.74663 1075.4464,201.74663 1075.4464,925.2684 Z"
       class="svg-appartment" />
    <path
       d="M 911.66267,1716.0916 51.517857,1716.0916 51.517857,1291.575 34.723994,1291.575 34.723994,967.51785 218.57176,967.51785 218.57176,954.31028 911.96429,954.31028 911.96429,1086.1352 896.38412,1086.1352 896.38412,1212.7857 910.17857,1212.7857 910.17857,1716.0916 Z"
       class="svg-appartment" />
    <path
       d="M 50.982143,1743.9464 878.45391,1743.9464 878.45391,2105.821 910.98215,2105.821 910.98215,2364.1044 651.80093,2364.1044 651.80093,2461.4579 191.29764,2461.4579 191.29764,2449.4623 34.375,2449.4623 34.375,2080.8214 51.071429,2080.8214 51.071429,1743.9464 Z"
       class="svg-appartment" />
    <path
       d="M 680.26786,2392.5179 1297.1429,2392.5179 1297.1429,2542.5226 1327.4667,2542.5226 1327.4667,2742.4697 1573.502,2742.4697 1573.502,3137.0714 1559.4643,3137.0714 1559.4643,3351.8929 1080.8632,3351.8929 1080.8632,3337.3864 35.102801,3337.3864 35.102801,2902.4286 49.464286,2902.4286 49.464286,2488.4795 679.64286,2488.4795 679.64286,2392.5179 Z"
       class="svg-appartment" />
    <path
       d="M 2648.1149,2460.7003 2071.0714,2460.7003 2071.0714,2364.9883 1770.5449,2364.9883 1770.5449,1742.6071 2631.0714,1742.6071 2631.0714,2119.75 2646.7857,2119.75 2646.7857,2460.7003 Z"
       class="svg-appartment" />
    <path
       d="M 2630.7143,1715.4643 1803.2486,1715.4643 1803.2486,1354.2044 1770.7343,1354.2044 1770.7343,954.39285 2463.3833,954.39285 2463.3833,967.6948 2651.4286,967.6948 2651.4286,1302.0714 2632.5,1302.0714 2632.5,1715.4643 Z"
       class="svg-appartment" />
    <path
       d="M 2630.4018,926.31249 1606.6518,926.31249 1606.6518,200.48394 1736.4522,200.48394 1736.4522,23.767848 2110,23.767848 2110,200.35767 2627.9118,200.35767 2627.9118,926.31249 Z"
       class="svg-appartment" />
    <path
       d="M 1385.3571,2392.4286 2043.2861,2392.4286 2043.2861,2488.1429 2631.4286,2488.1429 2631.4286,2916.3571 2648.0357,2916.3571 2648.0357,3335.4643 1603.4909,3335.4643 1603.4909,2705.8214 1573.6283,2705.8214 1573.6283,2714.438 1354.4643,2714.438 1354.4643,2542.5179 1385.2979,2542.5179 1385.2979,2392.4286 Z"
       class="svg-appartment" />
  </g>
</svg>
