<svg
   xmlns:svg="http://www.w3.org/2000/svg"
   xmlns="http://www.w3.org/2000/svg"
   xmlns:xlink="http://www.w3.org/1999/xlink"
   viewBox="0 0 2681.9999 3385.9999"
   height="100%"
   width="100%">
  <g>
    <image
       xlink:href="floor_10-12.png"
       y="-4.7097994e-05"
       x="0"
       id="image4282"
       style="image-rendering:optimizeSpeed"
       preserveAspectRatio="none"
       height="3386"
       width="2682" />
    <path
       d="M 1073.7922,925.2684 50.357143,925.2684 50.357143,204.03571 572.75649,204.03571 572.75649,19.928564 945.35714,19.928564 945.35714,202.07142 1075.0548,202.07142 1075.0548,925.2684 Z"
       class="svg-appartment" />
    <path
       d="M 910.71429,1715.6429 51.265242,1715.6429 51.265242,1290.8214 35.178572,1290.8214 35.178572,967.60714 219.32937,967.60714 219.32937,954.68909 911.78572,954.68909 911.78572,1087.0714 896.78572,1087.0714 896.78572,1214.2143 910.53572,1214.2143 910.53572,1715.6429 Z"
       class="svg-appartment" />
    <path
       d="M 911.07143,2226.7143 911.07143,2364.2143 652.5,2364.2143 652.5,2461.3571 190.66629,2461.3571 190.66629,2448.0734 34.345187,2448.0734 34.345187,2079.9286 50.714286,2079.9286 50.714286,1744.2143 879.08525,1744.2143 879.08525,2105.6429 910,2105.6429 910,2226.7143 911.07143,2226.7143 Z"
       class="svg-appartment" />
    <path
       d="M 680.0852,2393.02 1297.2884,2393.02 1297.2884,2543.5328 1327.593,2543.5328 1327.593,2742.4286 1573.2143,2742.4286 1573.2143,3135.4822 1559.6755,3135.4822 1559.6755,3351.1497 1123.0357,3351.1497 1123.0357,3337.25 35.102801,3337.25 35.102801,2916.8929 63.035714,2916.8929 63.035714,2826.5357 51.25,2826.5357 51.25,2489.2143 679.83266,2489.2143 679.83266,2393.02 Z"
       class="svg-appartment" />
    <path
       d="M 1384.2857,2392.7857 2042.0234,2392.7857 2042.0234,2488.9845 2632.1429,2488.9845 2632.1429,2827.7857 2617.8571,2827.7857 2617.8571,2917.4286 2648.5714,2917.4286 2648.5714,3336.3571 1603.9286,3336.3571 1603.9286,2713.7435 1354.1095,2713.7435 1354.1095,2541.7143 1386.0714,2541.7143 1386.0714,2392.7857 Z"
       class="svg-appartment" />
    <path
       d="M 1770.7974,1743.492 2630.7143,1743.492 2630.7143,2121.7143 2647.5,2121.7143 2647.5,2449.5714 2463.5095,2449.5714 2463.5095,2461.2053 2071.0714,2461.2053 2071.0714,2364.9286 1770.7974,2364.9286 Z"
       class="svg-appartment" />
    <path
       d="M 1771.3025,956.33059 2464.0146,956.33059 2464.0146,969.46257 2652.408,969.46257 2652.408,1290.6429 2632.1429,1290.6429 2632.1429,1717.228 1802.8571,1717.228 1802.8571,1354.457 1771.9338,1354.457 1771.9338,956.33059 Z"
       class="svg-appartment" />
    <path
       d="M 1607.9103,200.98902 1737.1429,200.98902 1737.1429,23.857136 2108.946,23.857136 2108.946,201.35714 2628.2143,201.35714 2628.2143,927.03616 1607.1527,927.03616 1607.1527,200.98902 Z"
       class="svg-appartment" />
  </g>
</svg>
