<?xml version="1.0" encoding="UTF-8" standalone="no"?>
<!-- Generator: Adobe Illustrator 22.0.0, SVG Export Plug-In . SVG Version: 6.00 Build 0)  -->

<svg
   xmlns:dc="http://purl.org/dc/elements/1.1/"
   xmlns:cc="http://creativecommons.org/ns#"
   xmlns:rdf="http://www.w3.org/1999/02/22-rdf-syntax-ns#"
   xmlns:svg="http://www.w3.org/2000/svg"
   xmlns="http://www.w3.org/2000/svg"
   xmlns:sodipodi="http://sodipodi.sourceforge.net/DTD/sodipodi-0.dtd"
   xmlns:inkscape="http://www.inkscape.org/namespaces/inkscape"
   version="1.1"
   id="Layer_1"
   x="0px"
   y="0px"
   viewBox="0 0 1919.8 726.04718"
   xml:space="preserve"
   inkscape:version="0.91 r13725"
   sodipodi:docname="Главная день (1).svg"
   width="1919.8"
   height="726.04718"><metadata
     id="metadata5272"><rdf:RDF><cc:Work
         rdf:about=""><dc:format>image/svg+xml</dc:format><dc:type
           rdf:resource="http://purl.org/dc/dcmitype/StillImage" /><dc:title></dc:title></cc:Work></rdf:RDF></metadata><defs
     id="defs5270" /><sodipodi:namedview
     pagecolor="#ffffff"
     bordercolor="#666666"
     borderopacity="1"
     objecttolerance="10"
     gridtolerance="10"
     guidetolerance="10"
     inkscape:pageopacity="0"
     inkscape:pageshadow="2"
     inkscape:window-width="1855"
     inkscape:window-height="1056"
     id="namedview5268"
     showgrid="false"
     fit-margin-top="0"
     fit-margin-left="0"
     fit-margin-right="0"
     fit-margin-bottom="0"
     inkscape:zoom="0.171875"
     inkscape:cx="467.18931"
     inkscape:cy="1505.8891"
     inkscape:window-x="65"
     inkscape:window-y="24"
     inkscape:window-maximized="1"
     inkscape:current-layer="Layer_1" /><linearGradient
     id="Footer_1_"
     gradientUnits="userSpaceOnUse"
     x1="960.09998"
     y1="-4198"
     x2="960.09998"
     y2="-3471.9531"
     gradientTransform="matrix(1,0,0,-1,-0.2,-3471.9528)"><stop
       offset="0"
       style="stop-color:#1870C4"
       id="stop7" /><stop
       offset="1"
       style="stop-color:#A3107C"
       id="stop9" /></linearGradient><path
     id="Footer"
     class="st1"
     d="M 1919.8,56.147161 C 1919.8,279.44716 1919.8,502.74716 1919.8,726.04716 1279.9,726.04716 640,726.04716 0,726.04716 0,506.74716 0,287.44716 0,68.147161 3.3,66.247161 6.6,64.247161 9.9,62.347161 83.3,21.447161 162.8,3.4471609 246.1,0.4471609 293,-1.2528391 339.6,1.9471609 386,9.1471609 458.5,20.347161 528.7,39.747161 596.4,67.947161 629.7,81.847161 664,90.947161 699.5,96.147161 740.3,102.14716 781.3,104.44716 822.5,105.14716 878.5,106.04716 934.4,104.24716 990.3,100.54716 1021,98.547161 1051.8,96.647161 1082.5,94.047161 1116.8,91.247161 1151.1,87.747161 1185.4,84.447161 1216.2,81.447161 1247,78.347161 1277.8,75.147161 1313.4,71.347161 1348.9,67.247161 1384.5,63.547161 1418.6,59.947161 1452.7,56.447161 1486.8,53.247161 1521.1,50.047161 1555.4,46.647161 1589.8,44.747161 1627.2,42.647161 1664.7,41.147161 1702.2,40.947161 1740.7,40.747161 1779.2,41.547161 1817.6,43.647161 1843.6,45.047161 1869.5,49.247161 1895.4,52.347161 1903.5,53.147161 1911.6,54.747161 1919.8,56.147161 Z"
     inkscape:connector-curvature="0"
     style="fill:url(#Footer_1_)" /><linearGradient
     id="SVGID_16_"
     gradientUnits="userSpaceOnUse"
     x1="960"
     y1="410"
     x2="960"
     y2="1080"
     gradientTransform="matrix(1,0,0,-1,0,1080)"><stop
       offset="0"
       style="stop-color:#CEFCFF"
       id="stop1455" /><stop
       offset="1"
       style="stop-color:#2F92C9"
       id="stop1457" /></linearGradient></svg>