<?xml version="1.0" encoding="utf-8"?>
<!-- Generator: Adobe Illustrator 22.0.0, SVG Export Plug-In . SVG Version: 6.00 Build 0)  -->
<svg version="1.1" id="Layer_1" xmlns="http://www.w3.org/2000/svg" xmlns:xlink="http://www.w3.org/1999/xlink" x="0px" y="0px"
	 viewBox="0 0 1920 301.6" style="enable-background:new 0 0 1920 301.6;" xml:space="preserve">
<style type="text/css">
	.st0{fill:#ECF3F5;}
	.st1{fill:#E4452C;}
	.st2{fill:none;}
	.st3{fill:#B90070;}
	.st4{fill:#F6FDFF;}
</style>
<path class="st0" d="M1271.1,128.4c1.9,0,3.5,0,4.9-0.1C1274.4,128.4,1272.7,128.4,1271.1,128.4z"/>
<path class="st1" d="M1565,110c-49.3,5.7-113.1,11.4-183,14.9c11.1-0.5,19.2-0.9,21.7-1.2c8,0.6,6.2,1.2,6.1,1.3
	c127.8-6.3,303.6-24.7,510.3-79V28C1738,85,1669,98,1565,110z"/>
<path class="st2" d="M1169.4,127.4c11.3,0.4,22.7,0.7,34.1,0.9C1192.6,128,1181.2,127.7,1169.4,127.4z"/>
<path class="st0" d="M1409.7,125L1409.7,125c0,0-73.8,6-206.2,3.2c-11.4-0.2-22.8-0.5-34.1-0.9l0,0l0,0l0,0l0,0
	c-18-0.5-37.2-1.3-57-2.3c-15.3-0.7-30.6-1.6-41.7-2.4l0,0C947,114.6,807.8,98.4,743,82c-83-21-236-41-425-28S0,46,0,46
	c0,52.2,0,136.2,0,183c142,57,310,46,567,31s431,8,761,14s592-45,592-45V46C1713.3,100.3,1537.5,118.7,1409.7,125z"/>
<path class="st1" d="M1409.7,125L1409.7,125c0.1,0,1.9-0.7-6.1-1.3c-2.4,0.3-10.6,0.7-21.7,1.2c-34.2,1.7-69.8,3-106,3.5
	c-1.4,0-3,0-4.9,0.1c-27.4,0.2-101.7-1.1-101.7-1.1c11.8,0.4,23.1,0.6,34.1,0.9C1335.9,131,1409.7,125,1409.7,125z"/>
<path class="st3" d="M1138,126c-22.6-1.2-44.4-2.6-65.6-4.3C948.8,111.8,844,93,710,64C553,30,511,34,436,43S292,54,212,54
	S42,41,0,28c0,5.4,0,11.5,0,18c0,0,129,21,318,8s342,7,425,28c64.8,16.4,204,32.6,327.8,40.7c14.1,0.9,28.1,1.7,41.7,2.4
	c19.8,1,39,1.8,57,2.3C1158.9,127,1148.4,126.5,1138,126z"/>
<path class="st3" d="M1070.8,122.7c11.1,0.9,26.4,1.7,41.7,2.4C1098.8,124.4,1084.9,123.6,1070.8,122.7L1070.8,122.7z"/>
<path class="st4" d="M1328,273c-330-6-504-29-761-14S142,285,0,228c0,17,0,29.1,0,33c95,33,209,36,446,17s436-17,567-13
	s166,14,425,22s482-26,482-26v-33C1920,228,1658,279,1328,273z"/>
</svg>
