<?xml version="1.0" encoding="utf-8"?>
<!-- Generator: Adobe Illustrator 22.0.0, SVG Export Plug-In . SVG Version: 6.00 Build 0)  -->
<svg version="1.1" id="Layer_1" xmlns="http://www.w3.org/2000/svg" xmlns:xlink="http://www.w3.org/1999/xlink" x="0px" y="0px"
	 viewBox="0 0 1920 301.6" style="enable-background:new 0 0 1920 301.6;" xml:space="preserve">
<style type="text/css">
	.st0{fill:#ECF3F5;}
	.st1{fill:#F6FDFF;}
	.st2{fill:url(#SVGID_1_);}
</style>
<path class="st0" d="M1409.7,123L1409.7,123c0,0-73.8,6-206.2,3.2c-11.4-0.2-22.8-0.5-34.1-0.9l0,0l0,0l0,0l0,0
	c-18-0.5-37.2-1.3-57-2.3c-15.3-0.7-30.6-1.6-41.7-2.4l0,0C947,112.6,807.8,96.4,743,80c-83-21-236-41-425-28S0,44,0,44
	c0,52.2,0,138.2,0,185c142,57,310,46,567,31s431,8,761,14s592-45,592-45V44C1713.3,98.3,1537.5,116.7,1409.7,123z"/>
<path class="st1" d="M1328,273c-330-6-504-29-761-14S142,285,0,228c0,17,0,39.1,0,43c95,33,209,36,446,17s436-17,567-13
	s166,14,425,22s482-26,482-26v-43C1920,228,1658,279,1328,273z"/>
<linearGradient id="SVGID_1_" gradientUnits="userSpaceOnUse" x1="0" y1="81.7527" x2="1920.0999" y2="81.7527">
	<stop  offset="0" style="stop-color:#B90070"/>
	<stop  offset="1" style="stop-color:#E4452C"/>
</linearGradient>
<path class="st2" d="M1359.2,115.4c-0.9,0.1-104.8,5.7-137.8,5.7c-0.3,0-0.5,0-0.8,0c-33.9-0.1-121.4-5.3-121.4-5.3l0,0
	c-97.4-7.3-237.5-22.1-368.6-51.4C500.3,12.9,442.7,45.8,304,45.7S106,50,0,24c0,18,0,18,0,18s83.3,22.9,186,23.3
	c144,0.7,311.7-18.7,386.7-8.7c100,13.3,314.1,77,648.7,82.7C1669.4,144.1,1920,46,1920,46s0-12.3,0.1-22
	C1723.8,79.1,1512.1,104.2,1359.2,115.4z"/>
</svg>
